# MagicaVoxel @ Ephtracy

# group
o 

# material
mtllib hospitalbase.mtl
usemtl palette

# normals
vn -1 0 0
vn 1 0 0
vn 0 0 1
vn 0 0 -1
vn 0 -1 0
vn 0 1 0

# texcoords
vt 0.716797 0.5
vt 0.744141 0.5
vt 0.958984 0.5

# verts
v -2.4 0 1
v -2.4 0 -1.1
v -2.4 1.8 1
v -2.4 1.8 -1.1
v -2.2 0.9 1.1
v -2.2 0.9 1
v -2.2 1.2 1.1
v -2.2 1.2 1
v -2.2 1.3 1.1
v -2.2 1.3 1
v -2.2 1.6 1.1
v -2.2 1.6 1
v -2.1 0 1.1
v -2.1 0 1
v -2.1 0.7 1.1
v -2.1 0.7 1
v -1.2 0 1.1
v -1.2 0 1
v -1.2 0 -1.1
v -1.2 0 -1.2
v -1.2 1.8 1
v -1.2 1.8 -1.1
v -1.2 2.9 1.1
v -1.2 2.9 -1.2
v -0.9 1.5 1.2
v -0.9 1.5 1.1
v -0.9 1.8 1.2
v -0.9 1.8 1.1
v -0.9 2 1.2
v -0.9 2 1.1
v -0.9 2.5 1.2
v -0.9 2.5 1.1
v -0.7 0 1.6
v -0.7 0 1.1
v -0.7 1.4 1.6
v -0.7 1.4 1.1
v -0.4 0 1.7
v -0.4 0 1.6
v -0.4 0.9 1.7
v -0.4 0.9 1.6
v -0.4 1.5 1.2
v -0.4 1.5 1.1
v -0.4 1.8 1.2
v -0.4 1.8 1.1
v 0.6 1.5 1.2
v 0.6 1.5 1.1
v 0.6 1.8 1.2
v 0.6 1.8 1.1
v 1.4 0.9 1.1
v 1.4 0.9 1
v 1.4 1.2 1.1
v 1.4 1.2 1
v 1.4 1.3 1.1
v 1.4 1.3 1
v 1.4 1.6 1.1
v 1.4 1.6 1
v 1.6 0 1.1
v 1.6 0 1
v 1.6 0.7 1.1
v 1.6 0.7 1
v -1.6 0 1.1
v -1.6 0 1
v -1.6 0.7 1.1
v -1.6 0.7 1
v -1.4 0.9 1.1
v -1.4 0.9 1
v -1.4 1.2 1.1
v -1.4 1.2 1
v -1.4 1.3 1.1
v -1.4 1.3 1
v -1.4 1.6 1.1
v -1.4 1.6 1
v -0.6 1.5 1.2
v -0.6 1.5 1.1
v -0.6 1.8 1.2
v -0.6 1.8 1.1
v 0.4 0 1.7
v 0.4 0 1.6
v 0.4 0.9 1.7
v 0.4 0.9 1.6
v 0.4 1.5 1.2
v 0.4 1.5 1.1
v 0.4 1.8 1.2
v 0.4 1.8 1.1
v 0.7 0 1.6
v 0.7 0 1.1
v 0.7 1.4 1.6
v 0.7 1.4 1.1
v 0.9 1.5 1.2
v 0.9 1.5 1.1
v 0.9 1.8 1.2
v 0.9 1.8 1.1
v 0.9 2 1.2
v 0.9 2 1.1
v 0.9 2.5 1.2
v 0.9 2.5 1.1
v 1.2 0 1.1
v 1.2 0 1
v 1.2 0 -1.1
v 1.2 0 -1.2
v 1.2 1.8 1
v 1.2 1.8 -1.1
v 1.2 2.9 1.1
v 1.2 2.9 -1.2
v 2.1 0 1.1
v 2.1 0 1
v 2.1 0.7 1.1
v 2.1 0.7 1
v 2.2 0.9 1.1
v 2.2 0.9 1
v 2.2 1.2 1.1
v 2.2 1.2 1
v 2.2 1.3 1.1
v 2.2 1.3 1
v 2.2 1.6 1.1
v 2.2 1.6 1
v 2.4 0 1
v 2.4 0 -1.1
v 2.4 1.8 1
v 2.4 1.8 -1.1
v -0.4 0 1.7
v -0.4 0.9 1.7
v -0.3 0 1.7
v -0.3 0.8 1.7
v -0.0999999 0.3 1.7
v -0.0999999 0.4 1.7
v 0.1 0.3 1.7
v 0.1 0.4 1.7
v 0.3 0 1.7
v 0.3 0.8 1.7
v 0.4 0 1.7
v 0.4 0.9 1.7
v -0.7 0 1.6
v -0.7 1.4 1.6
v -0.4 0 1.6
v -0.4 0.9 1.6
v 0.4 0 1.6
v 0.4 0.9 1.6
v 0.7 0 1.6
v 0.7 1.4 1.6
v -0.9 1.5 1.2
v -0.9 1.8 1.2
v -0.9 2 1.2
v -0.9 2.5 1.2
v -0.6 1.5 1.2
v -0.6 1.8 1.2
v -0.4 1.5 1.2
v -0.4 1.8 1.2
v 0.4 1.5 1.2
v 0.4 1.8 1.2
v 0.6 1.5 1.2
v 0.6 1.8 1.2
v 0.9 1.5 1.2
v 0.9 1.8 1.2
v 0.9 2 1.2
v 0.9 2.5 1.2
v -2.2 0.9 1.1
v -2.2 1.2 1.1
v -2.2 1.3 1.1
v -2.2 1.6 1.1
v -2.1 0 1.1
v -2.1 0.7 1.1
v -1.6 0 1.1
v -1.6 0.7 1.1
v -1.4 0.9 1.1
v -1.4 1.2 1.1
v -1.4 1.3 1.1
v -1.4 1.6 1.1
v -1.2 0 1.1
v -1.2 2.9 1.1
v -0.9 1.5 1.1
v -0.9 1.8 1.1
v -0.9 2 1.1
v -0.9 2.5 1.1
v -0.7 0 1.1
v -0.7 1.4 1.1
v -0.6 1.5 1.1
v -0.6 1.8 1.1
v -0.4 1.5 1.1
v -0.4 1.8 1.1
v 0.4 1.5 1.1
v 0.4 1.8 1.1
v 0.6 1.5 1.1
v 0.6 1.8 1.1
v 0.7 0 1.1
v 0.7 1.4 1.1
v 0.9 1.5 1.1
v 0.9 1.8 1.1
v 0.9 2 1.1
v 0.9 2.5 1.1
v 1.2 0 1.1
v 1.2 2.9 1.1
v 1.4 0.9 1.1
v 1.4 1.2 1.1
v 1.4 1.3 1.1
v 1.4 1.6 1.1
v 1.6 0 1.1
v 1.6 0.7 1.1
v 2.1 0 1.1
v 2.1 0.7 1.1
v 2.2 0.9 1.1
v 2.2 1.2 1.1
v 2.2 1.3 1.1
v 2.2 1.6 1.1
v -2.4 0 1
v -2.4 1.8 1
v -2.2 0.9 1
v -2.2 1.2 1
v -2.2 1.3 1
v -2.2 1.6 1
v -2.1 0 1
v -2.1 0.7 1
v -1.6 0 1
v -1.6 0.7 1
v -1.4 0.9 1
v -1.4 1.2 1
v -1.4 1.3 1
v -1.4 1.6 1
v -1.2 0 1
v -1.2 1.8 1
v 1.2 0 1
v 1.2 1.8 1
v 1.4 0.9 1
v 1.4 1.2 1
v 1.4 1.3 1
v 1.4 1.6 1
v 1.6 0 1
v 1.6 0.7 1
v 2.1 0 1
v 2.1 0.7 1
v 2.2 0.9 1
v 2.2 1.2 1
v 2.2 1.3 1
v 2.2 1.6 1
v 2.4 0 1
v 2.4 1.8 1
v -2.4 0 -1.1
v -2.4 1.8 -1.1
v -1.2 0 -1.1
v -1.2 1.8 -1.1
v 1.2 0 -1.1
v 1.2 1.8 -1.1
v 2.4 0 -1.1
v 2.4 1.8 -1.1
v -1.2 0 -1.2
v -1.2 2.9 -1.2
v 1.2 0 -1.2
v 1.2 2.9 -1.2
v -0.4 0 1.7
v -0.3 0 1.7
v 0.3 0 1.7
v 0.4 0 1.7
v -0.7 0 1.6
v -0.4 0 1.6
v -0.3 0 1.6
v 0.3 0 1.6
v 0.4 0 1.6
v 0.7 0 1.6
v -2.1 0 1.1
v -1.6 0 1.1
v -1.2 0 1.1
v -0.7 0 1.1
v 0.7 0 1.1
v 1.2 0 1.1
v 1.6 0 1.1
v 2.1 0 1.1
v -2.4 0 1
v -2.1 0 1
v -1.6 0 1
v -1.2 0 1
v 1.2 0 1
v 1.6 0 1
v 2.1 0 1
v 2.4 0 1
v -2.4 0 -1.1
v -1.2 0 -1.1
v 1.2 0 -1.1
v 2.4 0 -1.1
v -1.2 0 -1.2
v 1.2 0 -1.2
v -2.2 0.9 1.1
v -1.4 0.9 1.1
v 1.4 0.9 1.1
v 2.2 0.9 1.1
v -2.2 0.9 1
v -1.4 0.9 1
v 1.4 0.9 1
v 2.2 0.9 1
v -2.2 1.3 1.1
v -1.4 1.3 1.1
v 1.4 1.3 1.1
v 2.2 1.3 1.1
v -2.2 1.3 1
v -1.4 1.3 1
v 1.4 1.3 1
v 2.2 1.3 1
v -0.9 1.5 1.2
v -0.6 1.5 1.2
v -0.4 1.5 1.2
v 0.4 1.5 1.2
v 0.6 1.5 1.2
v 0.9 1.5 1.2
v -0.9 1.5 1.1
v -0.6 1.5 1.1
v -0.4 1.5 1.1
v 0.4 1.5 1.1
v 0.6 1.5 1.1
v 0.9 1.5 1.1
v -0.9 2 1.2
v 0.9 2 1.2
v -0.9 2 1.1
v 0.9 2 1.1
v -2.1 0.7 1.1
v -1.6 0.7 1.1
v 1.6 0.7 1.1
v 2.1 0.7 1.1
v -2.1 0.7 1
v -1.6 0.7 1
v 1.6 0.7 1
v 2.1 0.7 1
v -0.4 0.9 1.7
v 0.4 0.9 1.7
v -0.4 0.9 1.6
v 0.4 0.9 1.6
v -2.2 1.2 1.1
v -1.4 1.2 1.1
v 1.4 1.2 1.1
v 2.2 1.2 1.1
v -2.2 1.2 1
v -1.4 1.2 1
v 1.4 1.2 1
v 2.2 1.2 1
v -0.7 1.4 1.6
v 0.7 1.4 1.6
v -0.7 1.4 1.1
v 0.7 1.4 1.1
v -2.2 1.6 1.1
v -1.4 1.6 1.1
v 1.4 1.6 1.1
v 2.2 1.6 1.1
v -2.2 1.6 1
v -1.4 1.6 1
v 1.4 1.6 1
v 2.2 1.6 1
v -0.9 1.8 1.2
v -0.6 1.8 1.2
v -0.4 1.8 1.2
v 0.4 1.8 1.2
v 0.6 1.8 1.2
v 0.9 1.8 1.2
v -0.9 1.8 1.1
v -0.6 1.8 1.1
v -0.4 1.8 1.1
v 0.4 1.8 1.1
v 0.6 1.8 1.1
v 0.9 1.8 1.1
v -2.4 1.8 1
v -1.2 1.8 1
v 1.2 1.8 1
v 2.4 1.8 1
v -2.4 1.8 -1.1
v -1.2 1.8 -1.1
v 1.2 1.8 -1.1
v 2.4 1.8 -1.1
v -0.9 2.5 1.2
v 0.9 2.5 1.2
v -0.9 2.5 1.1
v 0.9 2.5 1.1
v -1.2 2.9 1.1
v 1.2 2.9 1.1
v -1.2 2.9 -1.2
v 1.2 2.9 -1.2

# faces
f 3/3/1 2/3/1 1/3/1
f 4/3/1 2/3/1 3/3/1
f 7/2/1 6/2/1 5/2/1
f 8/2/1 6/2/1 7/2/1
f 11/2/1 10/2/1 9/2/1
f 12/2/1 10/2/1 11/2/1
f 15/1/1 14/1/1 13/1/1
f 16/1/1 14/1/1 15/1/1
f 21/3/1 18/3/1 17/3/1
f 22/3/1 20/3/1 19/3/1
f 23/3/1 21/3/1 17/3/1
f 23/3/1 22/3/1 21/3/1
f 24/3/1 20/3/1 22/3/1
f 24/3/1 22/3/1 23/3/1
f 27/2/1 26/2/1 25/2/1
f 28/2/1 26/2/1 27/2/1
f 31/2/1 30/2/1 29/2/1
f 32/2/1 30/2/1 31/2/1
f 35/3/1 34/3/1 33/3/1
f 36/3/1 34/3/1 35/3/1
f 39/2/1 38/2/1 37/2/1
f 40/2/1 38/2/1 39/2/1
f 43/2/1 42/2/1 41/2/1
f 44/2/1 42/2/1 43/2/1
f 47/2/1 46/2/1 45/2/1
f 48/2/1 46/2/1 47/2/1
f 51/2/1 50/2/1 49/2/1
f 52/2/1 50/2/1 51/2/1
f 55/2/1 54/2/1 53/2/1
f 56/2/1 54/2/1 55/2/1
f 59/1/1 58/1/1 57/1/1
f 60/1/1 58/1/1 59/1/1
f 61/1/2 62/1/2 63/1/2
f 63/1/2 62/1/2 64/1/2
f 65/2/2 66/2/2 67/2/2
f 67/2/2 66/2/2 68/2/2
f 69/2/2 70/2/2 71/2/2
f 71/2/2 70/2/2 72/2/2
f 73/2/2 74/2/2 75/2/2
f 75/2/2 74/2/2 76/2/2
f 77/2/2 78/2/2 79/2/2
f 79/2/2 78/2/2 80/2/2
f 81/2/2 82/2/2 83/2/2
f 83/2/2 82/2/2 84/2/2
f 85/3/2 86/3/2 87/3/2
f 87/3/2 86/3/2 88/3/2
f 89/2/2 90/2/2 91/2/2
f 91/2/2 90/2/2 92/2/2
f 93/2/2 94/2/2 95/2/2
f 95/2/2 94/2/2 96/2/2
f 97/3/2 98/3/2 101/3/2
f 99/3/2 100/3/2 102/3/2
f 97/3/2 101/3/2 103/3/2
f 101/3/2 102/3/2 103/3/2
f 102/3/2 100/3/2 104/3/2
f 103/3/2 102/3/2 104/3/2
f 105/1/2 106/1/2 107/1/2
f 107/1/2 106/1/2 108/1/2
f 109/2/2 110/2/2 111/2/2
f 111/2/2 110/2/2 112/2/2
f 113/2/2 114/2/2 115/2/2
f 115/2/2 114/2/2 116/2/2
f 117/3/2 118/3/2 119/3/2
f 119/3/2 118/3/2 120/3/2
f 123/2/3 122/2/3 121/2/3
f 124/2/3 122/2/3 123/2/3
f 125/1/3 124/1/3 123/1/3
f 126/1/3 124/1/3 125/1/3
f 127/1/3 125/1/3 123/1/3
f 127/2/3 126/2/3 125/2/3
f 128/1/3 124/1/3 126/1/3
f 128/2/3 126/2/3 127/2/3
f 129/1/3 127/1/3 123/1/3
f 129/1/3 128/1/3 127/1/3
f 130/2/3 122/2/3 124/2/3
f 130/1/3 128/1/3 129/1/3
f 130/1/3 124/1/3 128/1/3
f 131/2/3 130/2/3 129/2/3
f 132/2/3 122/2/3 130/2/3
f 132/2/3 130/2/3 131/2/3
f 135/3/3 134/3/3 133/3/3
f 136/3/3 134/3/3 135/3/3
f 138/3/3 134/3/3 136/3/3
f 139/3/3 138/3/3 137/3/3
f 140/3/3 134/3/3 138/3/3
f 140/3/3 138/3/3 139/3/3
f 145/2/3 142/2/3 141/2/3
f 146/2/3 142/2/3 145/2/3
f 149/2/3 148/2/3 147/2/3
f 150/2/3 148/2/3 149/2/3
f 153/2/3 152/2/3 151/2/3
f 154/2/3 152/2/3 153/2/3
f 155/2/3 144/2/3 143/2/3
f 156/2/3 144/2/3 155/2/3
f 163/1/3 162/1/3 161/1/3
f 164/1/3 162/1/3 163/1/3
f 165/2/3 158/2/3 157/2/3
f 166/2/3 158/2/3 165/2/3
f 167/2/3 160/2/3 159/2/3
f 168/2/3 160/2/3 167/2/3
f 171/3/3 170/3/3 169/3/3
f 172/3/3 170/3/3 171/3/3
f 173/3/3 170/3/3 172/3/3
f 174/3/3 170/3/3 173/3/3
f 175/3/3 171/3/3 169/3/3
f 176/3/3 171/3/3 175/3/3
f 177/3/3 171/3/3 176/3/3
f 178/3/3 173/3/3 172/3/3
f 179/3/3 177/3/3 176/3/3
f 179/3/3 178/3/3 177/3/3
f 180/3/3 173/3/3 178/3/3
f 180/3/3 178/3/3 179/3/3
f 181/3/3 179/3/3 176/3/3
f 182/3/3 173/3/3 180/3/3
f 183/3/3 181/3/3 176/3/3
f 183/3/3 182/3/3 181/3/3
f 184/3/3 173/3/3 182/3/3
f 184/3/3 182/3/3 183/3/3
f 186/3/3 183/3/3 176/3/3
f 187/3/3 183/3/3 186/3/3
f 187/3/3 186/3/3 185/3/3
f 188/3/3 173/3/3 184/3/3
f 189/3/3 173/3/3 188/3/3
f 190/3/3 170/3/3 174/3/3
f 191/3/3 189/3/3 188/3/3
f 191/3/3 190/3/3 189/3/3
f 191/3/3 187/3/3 185/3/3
f 191/3/3 188/3/3 187/3/3
f 192/3/3 170/3/3 190/3/3
f 192/3/3 190/3/3 191/3/3
f 199/1/3 198/1/3 197/1/3
f 200/1/3 198/1/3 199/1/3
f 201/2/3 194/2/3 193/2/3
f 202/2/3 194/2/3 201/2/3
f 203/2/3 196/2/3 195/2/3
f 204/2/3 196/2/3 203/2/3
f 207/3/3 206/3/3 205/3/3
f 208/3/3 206/3/3 207/3/3
f 209/3/3 206/3/3 208/3/3
f 210/3/3 206/3/3 209/3/3
f 211/3/3 207/3/3 205/3/3
f 212/3/3 207/3/3 211/3/3
f 214/3/3 207/3/3 212/3/3
f 215/3/3 207/3/3 214/3/3
f 215/3/3 214/3/3 213/3/3
f 216/3/3 209/3/3 208/3/3
f 217/3/3 209/3/3 216/3/3
f 218/3/3 206/3/3 210/3/3
f 219/3/3 217/3/3 216/3/3
f 219/3/3 218/3/3 217/3/3
f 219/3/3 215/3/3 213/3/3
f 219/3/3 216/3/3 215/3/3
f 220/3/3 206/3/3 218/3/3
f 220/3/3 218/3/3 219/3/3
f 223/3/3 222/3/3 221/3/3
f 224/3/3 222/3/3 223/3/3
f 225/3/3 222/3/3 224/3/3
f 226/3/3 222/3/3 225/3/3
f 227/3/3 223/3/3 221/3/3
f 228/3/3 223/3/3 227/3/3
f 230/3/3 223/3/3 228/3/3
f 231/3/3 223/3/3 230/3/3
f 231/3/3 230/3/3 229/3/3
f 232/3/3 225/3/3 224/3/3
f 233/3/3 225/3/3 232/3/3
f 234/3/3 222/3/3 226/3/3
f 235/3/3 233/3/3 232/3/3
f 235/3/3 234/3/3 233/3/3
f 235/3/3 231/3/3 229/3/3
f 235/3/3 232/3/3 231/3/3
f 236/3/3 222/3/3 234/3/3
f 236/3/3 234/3/3 235/3/3
f 237/3/4 238/3/4 239/3/4
f 239/3/4 238/3/4 240/3/4
f 241/3/4 242/3/4 243/3/4
f 243/3/4 242/3/4 244/3/4
f 245/3/4 246/3/4 247/3/4
f 247/3/4 246/3/4 248/3/4
f 254/2/5 250/2/5 249/2/5
f 255/1/5 251/1/5 250/1/5
f 255/2/5 250/2/5 254/2/5
f 256/2/5 252/2/5 251/2/5
f 256/1/5 251/1/5 255/1/5
f 257/2/5 252/2/5 256/2/5
f 262/3/5 255/3/5 254/3/5
f 262/3/5 254/3/5 253/3/5
f 262/3/5 258/3/5 257/3/5
f 262/3/5 257/3/5 256/3/5
f 262/3/5 256/3/5 255/3/5
f 263/3/5 258/3/5 262/3/5
f 268/1/5 260/1/5 259/1/5
f 269/1/5 260/1/5 268/1/5
f 270/3/5 262/3/5 261/3/5
f 270/3/5 263/3/5 262/3/5
f 270/3/5 264/3/5 263/3/5
f 271/3/5 264/3/5 270/3/5
f 272/1/5 266/1/5 265/1/5
f 273/1/5 266/1/5 272/1/5
f 275/3/5 271/3/5 270/3/5
f 275/3/5 274/3/5 273/3/5
f 275/3/5 273/3/5 272/3/5
f 275/3/5 272/3/5 271/3/5
f 275/3/5 269/3/5 268/3/5
f 275/3/5 270/3/5 269/3/5
f 275/3/5 268/3/5 267/3/5
f 276/3/5 274/3/5 275/3/5
f 277/3/5 274/3/5 276/3/5
f 278/3/5 274/3/5 277/3/5
f 279/3/5 277/3/5 276/3/5
f 280/3/5 277/3/5 279/3/5
f 285/2/5 282/2/5 281/2/5
f 286/2/5 282/2/5 285/2/5
f 287/2/5 284/2/5 283/2/5
f 288/2/5 284/2/5 287/2/5
f 293/2/5 290/2/5 289/2/5
f 294/2/5 290/2/5 293/2/5
f 295/2/5 292/2/5 291/2/5
f 296/2/5 292/2/5 295/2/5
f 303/2/5 298/2/5 297/2/5
f 304/2/5 298/2/5 303/2/5
f 305/2/5 300/2/5 299/2/5
f 306/2/5 300/2/5 305/2/5
f 307/2/5 302/2/5 301/2/5
f 308/2/5 302/2/5 307/2/5
f 311/2/5 310/2/5 309/2/5
f 312/2/5 310/2/5 311/2/5
f 313/1/6 314/1/6 317/1/6
f 317/1/6 314/1/6 318/1/6
f 315/1/6 316/1/6 319/1/6
f 319/1/6 316/1/6 320/1/6
f 321/2/6 322/2/6 323/2/6
f 323/2/6 322/2/6 324/2/6
f 325/2/6 326/2/6 329/2/6
f 329/2/6 326/2/6 330/2/6
f 327/2/6 328/2/6 331/2/6
f 331/2/6 328/2/6 332/2/6
f 333/3/6 334/3/6 335/3/6
f 335/3/6 334/3/6 336/3/6
f 337/2/6 338/2/6 341/2/6
f 341/2/6 338/2/6 342/2/6
f 339/2/6 340/2/6 343/2/6
f 343/2/6 340/2/6 344/2/6
f 345/2/6 346/2/6 351/2/6
f 351/2/6 346/2/6 352/2/6
f 347/2/6 348/2/6 353/2/6
f 353/2/6 348/2/6 354/2/6
f 349/2/6 350/2/6 355/2/6
f 355/2/6 350/2/6 356/2/6
f 357/3/6 358/3/6 361/3/6
f 361/3/6 358/3/6 362/3/6
f 359/3/6 360/3/6 363/3/6
f 363/3/6 360/3/6 364/3/6
f 365/2/6 366/2/6 367/2/6
f 367/2/6 366/2/6 368/2/6
f 369/3/6 370/3/6 371/3/6
f 371/3/6 370/3/6 372/3/6
