# MagicaVoxel @ Ephtracy

# group
o 

# material
mtllib hospitalTower.mtl
usemtl palette

# normals
vn -1 0 0
vn 1 0 0
vn 0 0 1
vn 0 0 -1
vn 0 -1 0
vn 0 1 0

# texcoords
vt 0.146484 0.5
vt 0.716797 0.5
vt 0.744141 0.5
vt 0.958984 0.5

# verts
v -2.4 0 1
v -2.4 0 -1.1
v -2.4 1.8 1
v -2.4 1.8 -1.1
v -2.2 0.9 1.1
v -2.2 0.9 1
v -2.2 1.2 1.1
v -2.2 1.2 1
v -2.2 1.3 1.1
v -2.2 1.3 1
v -2.2 1.6 1.1
v -2.2 1.6 1
v -2.1 0 1.1
v -2.1 0 1
v -2.1 0.7 1.1
v -2.1 0.7 1
v -1.2 0 1.1
v -1.2 0 1
v -1.2 0 -1.1
v -1.2 0 -1.2
v -1.2 1.8 1
v -1.2 1.8 -1.1
v -1.2 2.9 1.1
v -1.2 2.9 -1.2
v -1 3.5 0.3
v -1 3.5 -0.4
v -1 4.2 0.3
v -1 4.2 -0.4
v -0.9 1.5 1.2
v -0.9 1.5 1.1
v -0.9 1.8 1.2
v -0.9 1.8 1.1
v -0.9 2 1.2
v -0.9 2 1.1
v -0.9 2.5 1.2
v -0.9 2.5 1.1
v -0.7 0 1.6
v -0.7 0 1.1
v -0.7 1.4 1.6
v -0.7 1.4 1.1
v -0.4 0 1.7
v -0.4 0 1.6
v -0.4 0.9 1.7
v -0.4 0.9 1.6
v -0.4 1.5 1.2
v -0.4 1.5 1.1
v -0.4 1.8 1.2
v -0.4 1.8 1.1
v -0.4 2.9 0.3
v -0.4 2.9 -0.4
v -0.4 3.5 0.3
v -0.4 3.5 -0.4
v -0.4 4.2 0.3
v -0.4 4.2 -0.4
v -0.4 4.8 0.3
v -0.4 4.8 -0.4
v 0.6 1.5 1.2
v 0.6 1.5 1.1
v 0.6 1.8 1.2
v 0.6 1.8 1.1
v 1.4 0.9 1.1
v 1.4 0.9 1
v 1.4 1.2 1.1
v 1.4 1.2 1
v 1.4 1.3 1.1
v 1.4 1.3 1
v 1.4 1.6 1.1
v 1.4 1.6 1
v 1.6 0 1.1
v 1.6 0 1
v 1.6 0.7 1.1
v 1.6 0.7 1
v -1.6 0 1.1
v -1.6 0 1
v -1.6 0.7 1.1
v -1.6 0.7 1
v -1.4 0.9 1.1
v -1.4 0.9 1
v -1.4 1.2 1.1
v -1.4 1.2 1
v -1.4 1.3 1.1
v -1.4 1.3 1
v -1.4 1.6 1.1
v -1.4 1.6 1
v -0.6 1.5 1.2
v -0.6 1.5 1.1
v -0.6 1.8 1.2
v -0.6 1.8 1.1
v 0.4 0 1.7
v 0.4 0 1.6
v 0.4 0.9 1.7
v 0.4 0.9 1.6
v 0.4 1.5 1.2
v 0.4 1.5 1.1
v 0.4 1.8 1.2
v 0.4 1.8 1.1
v 0.4 2.9 0.3
v 0.4 2.9 -0.4
v 0.4 3.5 0.3
v 0.4 3.5 -0.4
v 0.4 4.2 0.3
v 0.4 4.2 -0.4
v 0.4 4.8 0.3
v 0.4 4.8 -0.4
v 0.7 0 1.6
v 0.7 0 1.1
v 0.7 1.4 1.6
v 0.7 1.4 1.1
v 0.9 1.5 1.2
v 0.9 1.5 1.1
v 0.9 1.8 1.2
v 0.9 1.8 1.1
v 0.9 2 1.2
v 0.9 2 1.1
v 0.9 2.5 1.2
v 0.9 2.5 1.1
v 1 3.5 0.3
v 1 3.5 -0.4
v 1 4.2 0.3
v 1 4.2 -0.4
v 1.2 0 1.1
v 1.2 0 1
v 1.2 0 -1.1
v 1.2 0 -1.2
v 1.2 1.8 1
v 1.2 1.8 -1.1
v 1.2 2.9 1.1
v 1.2 2.9 -1.2
v 2.1 0 1.1
v 2.1 0 1
v 2.1 0.7 1.1
v 2.1 0.7 1
v 2.2 0.9 1.1
v 2.2 0.9 1
v 2.2 1.2 1.1
v 2.2 1.2 1
v 2.2 1.3 1.1
v 2.2 1.3 1
v 2.2 1.6 1.1
v 2.2 1.6 1
v 2.4 0 1
v 2.4 0 -1.1
v 2.4 1.8 1
v 2.4 1.8 -1.1
v -0.4 0 1.7
v -0.4 0.9 1.7
v -0.3 0 1.7
v -0.3 0.8 1.7
v -0.0999999 0.3 1.7
v -0.0999999 0.4 1.7
v 0.1 0.3 1.7
v 0.1 0.4 1.7
v 0.3 0 1.7
v 0.3 0.8 1.7
v 0.4 0 1.7
v 0.4 0.9 1.7
v -0.7 0 1.6
v -0.7 1.4 1.6
v -0.4 0 1.6
v -0.4 0.9 1.6
v 0.4 0 1.6
v 0.4 0.9 1.6
v 0.7 0 1.6
v 0.7 1.4 1.6
v -0.9 1.5 1.2
v -0.9 1.8 1.2
v -0.9 2 1.2
v -0.9 2.5 1.2
v -0.6 1.5 1.2
v -0.6 1.8 1.2
v -0.4 1.5 1.2
v -0.4 1.8 1.2
v 0.4 1.5 1.2
v 0.4 1.8 1.2
v 0.6 1.5 1.2
v 0.6 1.8 1.2
v 0.9 1.5 1.2
v 0.9 1.8 1.2
v 0.9 2 1.2
v 0.9 2.5 1.2
v -2.2 0.9 1.1
v -2.2 1.2 1.1
v -2.2 1.3 1.1
v -2.2 1.6 1.1
v -2.1 0 1.1
v -2.1 0.7 1.1
v -1.6 0 1.1
v -1.6 0.7 1.1
v -1.4 0.9 1.1
v -1.4 1.2 1.1
v -1.4 1.3 1.1
v -1.4 1.6 1.1
v -1.2 0 1.1
v -1.2 2.9 1.1
v -0.9 1.5 1.1
v -0.9 1.8 1.1
v -0.9 2 1.1
v -0.9 2.5 1.1
v -0.7 0 1.1
v -0.7 1.4 1.1
v -0.6 1.5 1.1
v -0.6 1.8 1.1
v -0.4 1.5 1.1
v -0.4 1.8 1.1
v 0.4 1.5 1.1
v 0.4 1.8 1.1
v 0.6 1.5 1.1
v 0.6 1.8 1.1
v 0.7 0 1.1
v 0.7 1.4 1.1
v 0.9 1.5 1.1
v 0.9 1.8 1.1
v 0.9 2 1.1
v 0.9 2.5 1.1
v 1.2 0 1.1
v 1.2 2.9 1.1
v 1.4 0.9 1.1
v 1.4 1.2 1.1
v 1.4 1.3 1.1
v 1.4 1.6 1.1
v 1.6 0 1.1
v 1.6 0.7 1.1
v 2.1 0 1.1
v 2.1 0.7 1.1
v 2.2 0.9 1.1
v 2.2 1.2 1.1
v 2.2 1.3 1.1
v 2.2 1.6 1.1
v -2.4 0 1
v -2.4 1.8 1
v -2.2 0.9 1
v -2.2 1.2 1
v -2.2 1.3 1
v -2.2 1.6 1
v -2.1 0 1
v -2.1 0.7 1
v -1.6 0 1
v -1.6 0.7 1
v -1.4 0.9 1
v -1.4 1.2 1
v -1.4 1.3 1
v -1.4 1.6 1
v -1.2 0 1
v -1.2 1.8 1
v 1.2 0 1
v 1.2 1.8 1
v 1.4 0.9 1
v 1.4 1.2 1
v 1.4 1.3 1
v 1.4 1.6 1
v 1.6 0 1
v 1.6 0.7 1
v 2.1 0 1
v 2.1 0.7 1
v 2.2 0.9 1
v 2.2 1.2 1
v 2.2 1.3 1
v 2.2 1.6 1
v 2.4 0 1
v 2.4 1.8 1
v -1 3.5 0.3
v -1 4.2 0.3
v -0.4 2.9 0.3
v -0.4 3.5 0.3
v -0.4 4.2 0.3
v -0.4 4.8 0.3
v 0.4 2.9 0.3
v 0.4 3.5 0.3
v 0.4 4.2 0.3
v 0.4 4.8 0.3
v 1 3.5 0.3
v 1 4.2 0.3
v -1 3.5 -0.4
v -1 4.2 -0.4
v -0.4 2.9 -0.4
v -0.4 3.5 -0.4
v -0.4 4.2 -0.4
v -0.4 4.8 -0.4
v 0.4 2.9 -0.4
v 0.4 3.5 -0.4
v 0.4 4.2 -0.4
v 0.4 4.8 -0.4
v 1 3.5 -0.4
v 1 4.2 -0.4
v -2.4 0 -1.1
v -2.4 1.8 -1.1
v -1.2 0 -1.1
v -1.2 1.8 -1.1
v 1.2 0 -1.1
v 1.2 1.8 -1.1
v 2.4 0 -1.1
v 2.4 1.8 -1.1
v -1.2 0 -1.2
v -1.2 2.9 -1.2
v 1.2 0 -1.2
v 1.2 2.9 -1.2
v -0.4 0 1.7
v -0.3 0 1.7
v 0.3 0 1.7
v 0.4 0 1.7
v -0.7 0 1.6
v -0.4 0 1.6
v -0.3 0 1.6
v 0.3 0 1.6
v 0.4 0 1.6
v 0.7 0 1.6
v -2.1 0 1.1
v -1.6 0 1.1
v -1.2 0 1.1
v -0.7 0 1.1
v 0.7 0 1.1
v 1.2 0 1.1
v 1.6 0 1.1
v 2.1 0 1.1
v -2.4 0 1
v -2.1 0 1
v -1.6 0 1
v -1.2 0 1
v 1.2 0 1
v 1.6 0 1
v 2.1 0 1
v 2.4 0 1
v -2.4 0 -1.1
v -1.2 0 -1.1
v 1.2 0 -1.1
v 2.4 0 -1.1
v -1.2 0 -1.2
v 1.2 0 -1.2
v -2.2 0.9 1.1
v -1.4 0.9 1.1
v 1.4 0.9 1.1
v 2.2 0.9 1.1
v -2.2 0.9 1
v -1.4 0.9 1
v 1.4 0.9 1
v 2.2 0.9 1
v -2.2 1.3 1.1
v -1.4 1.3 1.1
v 1.4 1.3 1.1
v 2.2 1.3 1.1
v -2.2 1.3 1
v -1.4 1.3 1
v 1.4 1.3 1
v 2.2 1.3 1
v -0.9 1.5 1.2
v -0.6 1.5 1.2
v -0.4 1.5 1.2
v 0.4 1.5 1.2
v 0.6 1.5 1.2
v 0.9 1.5 1.2
v -0.9 1.5 1.1
v -0.6 1.5 1.1
v -0.4 1.5 1.1
v 0.4 1.5 1.1
v 0.6 1.5 1.1
v 0.9 1.5 1.1
v -0.9 2 1.2
v 0.9 2 1.2
v -0.9 2 1.1
v 0.9 2 1.1
v -1 3.5 0.3
v -0.4 3.5 0.3
v 0.4 3.5 0.3
v 1 3.5 0.3
v -1 3.5 -0.4
v -0.4 3.5 -0.4
v 0.4 3.5 -0.4
v 1 3.5 -0.4
v -2.1 0.7 1.1
v -1.6 0.7 1.1
v 1.6 0.7 1.1
v 2.1 0.7 1.1
v -2.1 0.7 1
v -1.6 0.7 1
v 1.6 0.7 1
v 2.1 0.7 1
v -0.4 0.9 1.7
v 0.4 0.9 1.7
v -0.4 0.9 1.6
v 0.4 0.9 1.6
v -2.2 1.2 1.1
v -1.4 1.2 1.1
v 1.4 1.2 1.1
v 2.2 1.2 1.1
v -2.2 1.2 1
v -1.4 1.2 1
v 1.4 1.2 1
v 2.2 1.2 1
v -0.7 1.4 1.6
v 0.7 1.4 1.6
v -0.7 1.4 1.1
v 0.7 1.4 1.1
v -2.2 1.6 1.1
v -1.4 1.6 1.1
v 1.4 1.6 1.1
v 2.2 1.6 1.1
v -2.2 1.6 1
v -1.4 1.6 1
v 1.4 1.6 1
v 2.2 1.6 1
v -0.9 1.8 1.2
v -0.6 1.8 1.2
v -0.4 1.8 1.2
v 0.4 1.8 1.2
v 0.6 1.8 1.2
v 0.9 1.8 1.2
v -0.9 1.8 1.1
v -0.6 1.8 1.1
v -0.4 1.8 1.1
v 0.4 1.8 1.1
v 0.6 1.8 1.1
v 0.9 1.8 1.1
v -2.4 1.8 1
v -1.2 1.8 1
v 1.2 1.8 1
v 2.4 1.8 1
v -2.4 1.8 -1.1
v -1.2 1.8 -1.1
v 1.2 1.8 -1.1
v 2.4 1.8 -1.1
v -0.9 2.5 1.2
v 0.9 2.5 1.2
v -0.9 2.5 1.1
v 0.9 2.5 1.1
v -1.2 2.9 1.1
v 1.2 2.9 1.1
v -0.4 2.9 0.3
v 0.4 2.9 0.3
v -0.4 2.9 -0.4
v 0.4 2.9 -0.4
v -1.2 2.9 -1.2
v 1.2 2.9 -1.2
v -1 4.2 0.3
v -0.4 4.2 0.3
v 0.4 4.2 0.3
v 1 4.2 0.3
v -1 4.2 -0.4
v -0.4 4.2 -0.4
v 0.4 4.2 -0.4
v 1 4.2 -0.4
v -0.4 4.8 0.3
v 0.4 4.8 0.3
v -0.4 4.8 -0.4
v 0.4 4.8 -0.4

# faces
f 3/4/1 2/4/1 1/4/1
f 4/4/1 2/4/1 3/4/1
f 7/3/1 6/3/1 5/3/1
f 8/3/1 6/3/1 7/3/1
f 11/3/1 10/3/1 9/3/1
f 12/3/1 10/3/1 11/3/1
f 15/2/1 14/2/1 13/2/1
f 16/2/1 14/2/1 15/2/1
f 21/4/1 18/4/1 17/4/1
f 22/4/1 20/4/1 19/4/1
f 23/4/1 21/4/1 17/4/1
f 23/4/1 22/4/1 21/4/1
f 24/4/1 20/4/1 22/4/1
f 24/4/1 22/4/1 23/4/1
f 27/1/1 26/1/1 25/1/1
f 28/1/1 26/1/1 27/1/1
f 31/3/1 30/3/1 29/3/1
f 32/3/1 30/3/1 31/3/1
f 35/3/1 34/3/1 33/3/1
f 36/3/1 34/3/1 35/3/1
f 39/4/1 38/4/1 37/4/1
f 40/4/1 38/4/1 39/4/1
f 43/3/1 42/3/1 41/3/1
f 44/3/1 42/3/1 43/3/1
f 47/3/1 46/3/1 45/3/1
f 48/3/1 46/3/1 47/3/1
f 51/1/1 50/1/1 49/1/1
f 52/1/1 50/1/1 51/1/1
f 55/1/1 54/1/1 53/1/1
f 56/1/1 54/1/1 55/1/1
f 59/3/1 58/3/1 57/3/1
f 60/3/1 58/3/1 59/3/1
f 63/3/1 62/3/1 61/3/1
f 64/3/1 62/3/1 63/3/1
f 67/3/1 66/3/1 65/3/1
f 68/3/1 66/3/1 67/3/1
f 71/2/1 70/2/1 69/2/1
f 72/2/1 70/2/1 71/2/1
f 73/2/2 74/2/2 75/2/2
f 75/2/2 74/2/2 76/2/2
f 77/3/2 78/3/2 79/3/2
f 79/3/2 78/3/2 80/3/2
f 81/3/2 82/3/2 83/3/2
f 83/3/2 82/3/2 84/3/2
f 85/3/2 86/3/2 87/3/2
f 87/3/2 86/3/2 88/3/2
f 89/3/2 90/3/2 91/3/2
f 91/3/2 90/3/2 92/3/2
f 93/3/2 94/3/2 95/3/2
f 95/3/2 94/3/2 96/3/2
f 97/1/2 98/1/2 99/1/2
f 99/1/2 98/1/2 100/1/2
f 101/1/2 102/1/2 103/1/2
f 103/1/2 102/1/2 104/1/2
f 105/4/2 106/4/2 107/4/2
f 107/4/2 106/4/2 108/4/2
f 109/3/2 110/3/2 111/3/2
f 111/3/2 110/3/2 112/3/2
f 113/3/2 114/3/2 115/3/2
f 115/3/2 114/3/2 116/3/2
f 117/1/2 118/1/2 119/1/2
f 119/1/2 118/1/2 120/1/2
f 121/4/2 122/4/2 125/4/2
f 123/4/2 124/4/2 126/4/2
f 121/4/2 125/4/2 127/4/2
f 125/4/2 126/4/2 127/4/2
f 126/4/2 124/4/2 128/4/2
f 127/4/2 126/4/2 128/4/2
f 129/2/2 130/2/2 131/2/2
f 131/2/2 130/2/2 132/2/2
f 133/3/2 134/3/2 135/3/2
f 135/3/2 134/3/2 136/3/2
f 137/3/2 138/3/2 139/3/2
f 139/3/2 138/3/2 140/3/2
f 141/4/2 142/4/2 143/4/2
f 143/4/2 142/4/2 144/4/2
f 147/3/3 146/3/3 145/3/3
f 148/3/3 146/3/3 147/3/3
f 149/2/3 148/2/3 147/2/3
f 150/2/3 148/2/3 149/2/3
f 151/2/3 149/2/3 147/2/3
f 151/3/3 150/3/3 149/3/3
f 152/2/3 148/2/3 150/2/3
f 152/3/3 150/3/3 151/3/3
f 153/2/3 151/2/3 147/2/3
f 153/2/3 152/2/3 151/2/3
f 154/3/3 146/3/3 148/3/3
f 154/2/3 152/2/3 153/2/3
f 154/2/3 148/2/3 152/2/3
f 155/3/3 154/3/3 153/3/3
f 156/3/3 146/3/3 154/3/3
f 156/3/3 154/3/3 155/3/3
f 159/4/3 158/4/3 157/4/3
f 160/4/3 158/4/3 159/4/3
f 162/4/3 158/4/3 160/4/3
f 163/4/3 162/4/3 161/4/3
f 164/4/3 158/4/3 162/4/3
f 164/4/3 162/4/3 163/4/3
f 169/3/3 166/3/3 165/3/3
f 170/3/3 166/3/3 169/3/3
f 173/3/3 172/3/3 171/3/3
f 174/3/3 172/3/3 173/3/3
f 177/3/3 176/3/3 175/3/3
f 178/3/3 176/3/3 177/3/3
f 179/3/3 168/3/3 167/3/3
f 180/3/3 168/3/3 179/3/3
f 187/2/3 186/2/3 185/2/3
f 188/2/3 186/2/3 187/2/3
f 189/3/3 182/3/3 181/3/3
f 190/3/3 182/3/3 189/3/3
f 191/3/3 184/3/3 183/3/3
f 192/3/3 184/3/3 191/3/3
f 195/4/3 194/4/3 193/4/3
f 196/4/3 194/4/3 195/4/3
f 197/4/3 194/4/3 196/4/3
f 198/4/3 194/4/3 197/4/3
f 199/4/3 195/4/3 193/4/3
f 200/4/3 195/4/3 199/4/3
f 201/4/3 195/4/3 200/4/3
f 202/4/3 197/4/3 196/4/3
f 203/4/3 201/4/3 200/4/3
f 203/4/3 202/4/3 201/4/3
f 204/4/3 197/4/3 202/4/3
f 204/4/3 202/4/3 203/4/3
f 205/4/3 203/4/3 200/4/3
f 206/4/3 197/4/3 204/4/3
f 207/4/3 205/4/3 200/4/3
f 207/4/3 206/4/3 205/4/3
f 208/4/3 197/4/3 206/4/3
f 208/4/3 206/4/3 207/4/3
f 210/4/3 207/4/3 200/4/3
f 211/4/3 207/4/3 210/4/3
f 211/4/3 210/4/3 209/4/3
f 212/4/3 197/4/3 208/4/3
f 213/4/3 197/4/3 212/4/3
f 214/4/3 194/4/3 198/4/3
f 215/4/3 213/4/3 212/4/3
f 215/4/3 214/4/3 213/4/3
f 215/4/3 211/4/3 209/4/3
f 215/4/3 212/4/3 211/4/3
f 216/4/3 194/4/3 214/4/3
f 216/4/3 214/4/3 215/4/3
f 223/2/3 222/2/3 221/2/3
f 224/2/3 222/2/3 223/2/3
f 225/3/3 218/3/3 217/3/3
f 226/3/3 218/3/3 225/3/3
f 227/3/3 220/3/3 219/3/3
f 228/3/3 220/3/3 227/3/3
f 231/4/3 230/4/3 229/4/3
f 232/4/3 230/4/3 231/4/3
f 233/4/3 230/4/3 232/4/3
f 234/4/3 230/4/3 233/4/3
f 235/4/3 231/4/3 229/4/3
f 236/4/3 231/4/3 235/4/3
f 238/4/3 231/4/3 236/4/3
f 239/4/3 231/4/3 238/4/3
f 239/4/3 238/4/3 237/4/3
f 240/4/3 233/4/3 232/4/3
f 241/4/3 233/4/3 240/4/3
f 242/4/3 230/4/3 234/4/3
f 243/4/3 241/4/3 240/4/3
f 243/4/3 242/4/3 241/4/3
f 243/4/3 239/4/3 237/4/3
f 243/4/3 240/4/3 239/4/3
f 244/4/3 230/4/3 242/4/3
f 244/4/3 242/4/3 243/4/3
f 247/4/3 246/4/3 245/4/3
f 248/4/3 246/4/3 247/4/3
f 249/4/3 246/4/3 248/4/3
f 250/4/3 246/4/3 249/4/3
f 251/4/3 247/4/3 245/4/3
f 252/4/3 247/4/3 251/4/3
f 254/4/3 247/4/3 252/4/3
f 255/4/3 247/4/3 254/4/3
f 255/4/3 254/4/3 253/4/3
f 256/4/3 249/4/3 248/4/3
f 257/4/3 249/4/3 256/4/3
f 258/4/3 246/4/3 250/4/3
f 259/4/3 257/4/3 256/4/3
f 259/4/3 258/4/3 257/4/3
f 259/4/3 255/4/3 253/4/3
f 259/4/3 256/4/3 255/4/3
f 260/4/3 246/4/3 258/4/3
f 260/4/3 258/4/3 259/4/3
f 264/1/3 262/1/3 261/1/3
f 265/1/3 262/1/3 264/1/3
f 267/1/3 264/1/3 263/1/3
f 267/1/3 266/1/3 265/1/3
f 267/1/3 265/1/3 264/1/3
f 268/1/3 266/1/3 267/1/3
f 269/1/3 266/1/3 268/1/3
f 270/1/3 266/1/3 269/1/3
f 271/1/3 269/1/3 268/1/3
f 272/1/3 269/1/3 271/1/3
f 273/1/4 274/1/4 276/1/4
f 276/1/4 274/1/4 277/1/4
f 275/1/4 276/1/4 279/1/4
f 277/1/4 278/1/4 279/1/4
f 276/1/4 277/1/4 279/1/4
f 279/1/4 278/1/4 280/1/4
f 280/1/4 278/1/4 281/1/4
f 281/1/4 278/1/4 282/1/4
f 280/1/4 281/1/4 283/1/4
f 283/1/4 281/1/4 284/1/4
f 285/4/4 286/4/4 287/4/4
f 287/4/4 286/4/4 288/4/4
f 289/4/4 290/4/4 291/4/4
f 291/4/4 290/4/4 292/4/4
f 293/4/4 294/4/4 295/4/4
f 295/4/4 294/4/4 296/4/4
f 302/3/5 298/3/5 297/3/5
f 303/2/5 299/2/5 298/2/5
f 303/3/5 298/3/5 302/3/5
f 304/3/5 300/3/5 299/3/5
f 304/2/5 299/2/5 303/2/5
f 305/3/5 300/3/5 304/3/5
f 310/4/5 303/4/5 302/4/5
f 310/4/5 302/4/5 301/4/5
f 310/4/5 306/4/5 305/4/5
f 310/4/5 305/4/5 304/4/5
f 310/4/5 304/4/5 303/4/5
f 311/4/5 306/4/5 310/4/5
f 316/2/5 308/2/5 307/2/5
f 317/2/5 308/2/5 316/2/5
f 318/4/5 310/4/5 309/4/5
f 318/4/5 311/4/5 310/4/5
f 318/4/5 312/4/5 311/4/5
f 319/4/5 312/4/5 318/4/5
f 320/2/5 314/2/5 313/2/5
f 321/2/5 314/2/5 320/2/5
f 323/4/5 319/4/5 318/4/5
f 323/4/5 322/4/5 321/4/5
f 323/4/5 321/4/5 320/4/5
f 323/4/5 320/4/5 319/4/5
f 323/4/5 317/4/5 316/4/5
f 323/4/5 318/4/5 317/4/5
f 323/4/5 316/4/5 315/4/5
f 324/4/5 322/4/5 323/4/5
f 325/4/5 322/4/5 324/4/5
f 326/4/5 322/4/5 325/4/5
f 327/4/5 325/4/5 324/4/5
f 328/4/5 325/4/5 327/4/5
f 333/3/5 330/3/5 329/3/5
f 334/3/5 330/3/5 333/3/5
f 335/3/5 332/3/5 331/3/5
f 336/3/5 332/3/5 335/3/5
f 341/3/5 338/3/5 337/3/5
f 342/3/5 338/3/5 341/3/5
f 343/3/5 340/3/5 339/3/5
f 344/3/5 340/3/5 343/3/5
f 351/3/5 346/3/5 345/3/5
f 352/3/5 346/3/5 351/3/5
f 353/3/5 348/3/5 347/3/5
f 354/3/5 348/3/5 353/3/5
f 355/3/5 350/3/5 349/3/5
f 356/3/5 350/3/5 355/3/5
f 359/3/5 358/3/5 357/3/5
f 360/3/5 358/3/5 359/3/5
f 365/1/5 362/1/5 361/1/5
f 366/1/5 362/1/5 365/1/5
f 367/1/5 364/1/5 363/1/5
f 368/1/5 364/1/5 367/1/5
f 369/2/6 370/2/6 373/2/6
f 373/2/6 370/2/6 374/2/6
f 371/2/6 372/2/6 375/2/6
f 375/2/6 372/2/6 376/2/6
f 377/3/6 378/3/6 379/3/6
f 379/3/6 378/3/6 380/3/6
f 381/3/6 382/3/6 385/3/6
f 385/3/6 382/3/6 386/3/6
f 383/3/6 384/3/6 387/3/6
f 387/3/6 384/3/6 388/3/6
f 389/4/6 390/4/6 391/4/6
f 391/4/6 390/4/6 392/4/6
f 393/3/6 394/3/6 397/3/6
f 397/3/6 394/3/6 398/3/6
f 395/3/6 396/3/6 399/3/6
f 399/3/6 396/3/6 400/3/6
f 401/3/6 402/3/6 407/3/6
f 407/3/6 402/3/6 408/3/6
f 403/3/6 404/3/6 409/3/6
f 409/3/6 404/3/6 410/3/6
f 405/3/6 406/3/6 411/3/6
f 411/3/6 406/3/6 412/3/6
f 413/4/6 414/4/6 417/4/6
f 417/4/6 414/4/6 418/4/6
f 415/4/6 416/4/6 419/4/6
f 419/4/6 416/4/6 420/4/6
f 421/3/6 422/3/6 423/3/6
f 423/3/6 422/3/6 424/3/6
f 425/4/6 426/4/6 427/4/6
f 427/4/6 426/4/6 428/4/6
f 425/4/6 427/4/6 429/4/6
f 428/4/6 426/4/6 430/4/6
f 425/4/6 429/4/6 431/4/6
f 429/4/6 430/4/6 431/4/6
f 430/4/6 426/4/6 432/4/6
f 431/4/6 430/4/6 432/4/6
f 433/1/6 434/1/6 437/1/6
f 437/1/6 434/1/6 438/1/6
f 435/1/6 436/1/6 439/1/6
f 439/1/6 436/1/6 440/1/6
f 441/1/6 442/1/6 443/1/6
f 443/1/6 442/1/6 444/1/6
