# MagicaVoxel @ Ephtracy

# group
o 

# material
mtllib load4.mtl
usemtl palette

# normals
vn -1 0 0
vn 1 0 0
vn 0 0 1
vn 0 0 -1
vn 0 -1 0
vn 0 1 0

# texcoords
vt 0.541016 0.5
vt 0.556641 0.5
vt 0.572266 0.5
vt 0.923828 0.5
vt 0.927734 0.5
vt 0.962891 0.5
vt 0.994141 0.5

# verts
v -5 0 5
v -5 0 -5
v -5 0.6 -2.6
v -5 0.6 -3
v -5 1 5
v -5 1 -2.6
v -5 1 -3
v -5 1 -5
v 5 0 5
v 5 0 -5
v 5 0.6 0.8
v 5 0.6 0.4
v 5 0.7 3.3
v 5 0.7 3
v 5 0.9 3.8
v 5 0.9 3.3
v 5 0.9 3
v 5 0.9 0.8
v 5 0.9 0.4
v 5 0.9 -3
v 5 0.9 -3.3
v 5 0.9 -3.8
v 5 1 5
v 5 1 3.8
v 5 1 3.3
v 5 1 3
v 5 1 -3
v 5 1 -3.3
v 5 1 -3.8
v 5 1 -5
v -5 0 5
v -5 1 5
v -3.8 0 5
v -3.8 1 5
v -3.3 0 5
v -3.3 1 5
v -3 0 5
v -3 1 5
v 3 0 5
v 3 1 5
v 3.3 0 5
v 3.3 1 5
v 3.8 0 5
v 3.8 1 5
v 5 0 5
v 5 1 5
v -5 0 -5
v -5 1 -5
v -0.2 0.6 -5
v -0.2 1 -5
v 0.2 0.6 -5
v 0.2 1 -5
v 0.6 0.6 -5
v 0.6 1 -5
v 5 0 -5
v 5 1 -5
v -5 0 5
v -3.8 0 5
v -3.3 0 5
v -3 0 5
v 3 0 5
v 3.3 0 5
v 3.8 0 5
v 5 0 5
v -3 0 4.9
v 3 0 4.9
v 3.8 0 4.9
v 3.9 0 4.9
v 3.3 0 4.5
v 3.9 0 4.5
v 3 0 4.3
v 3.3 0 4.3
v -3.3 0 0.3
v -3 0 0.3
v -3.8 0 -0.2
v -3.3 0 -0.2
v -5 0 -5
v 5 0 -5
v -5 1 5
v -3.8 1 5
v -3.3 1 5
v -3 1 5
v 3 1 5
v 3.3 1 5
v 3.8 1 5
v 5 1 5
v 3.3 1 4.6
v 3.4 1 4.6
v 3.8 1 4.4
v 3.9 1 4.4
v -0.5 1 4.3
v 0.5 1 4.3
v 3 1 4.3
v 3.1 1 4.3
v 3.9 1 4.3
v 4 1 4.3
v 3.4 1 4.2
v 3.5 1 4.2
v 4 1 4.2
v 4.1 1 4.2
v 3.5 1 4.1
v 3.6 1 4.1
v 4.1 1 4.1
v 4.2 1 4.1
v 3.1 1 4
v 3.2 1 4
v 3.6 1 4
v 3.7 1 4
v 4.2 1 4
v 4.5 1 4
v 3.2 1 3.9
v 3.3 1 3.9
v 3.7 1 3.9
v 3.8 1 3.9
v 4.5 1 3.9
v 4.6 1 3.9
v 3.3 1 3.8
v 3.4 1 3.8
v 3.8 1 3.8
v 3.9 1 3.8
v 4.6 1 3.8
v 5 1 3.8
v 3.9 1 3.7
v 4 1 3.7
v 3.4 1 3.6
v 3.5 1 3.6
v 4 1 3.6
v 4.1 1 3.6
v 3.5 1 3.5
v 3.6 1 3.5
v 4.1 1 3.5
v 4.3 1 3.5
v 3.6 1 3.4
v 3.7 1 3.4
v 4.3 1 3.4
v 4.4 1 3.4
v 3.7 1 3.3
v 3.9 1 3.3
v 4.4 1 3.3
v 5 1 3.3
v 3.9 1 3.2
v 4 1 3.2
v 4 1 3.1
v 4.2 1 3.1
v 4.2 1 3
v 5 1 3
v -4.2 1 2.2
v -3.8 1 2.2
v -4.2 1 1.8
v -3.8 1 1.8
v -0.5 1 1.7
v 0.5 1 1.7
v 1.7 1 0.5
v 4.3 1 0.5
v -3.8 1 -0.2
v -3.7 1 -0.2
v -3 1 -0.5
v -2.9 1 -0.5
v 1.7 1 -0.5
v 4.3 1 -0.5
v -3.3 1 -0.7
v -3.2 1 -0.7
v -2.9 1 -0.7
v -2.8 1 -0.7
v -2.8 1 -0.9
v -2.7 1 -0.9
v -3.2 1 -1
v -3.1 1 -1
v -2.7 1 -1.1
v -2.6 1 -1.1
v -3.7 1 -1.2
v -3.6 1 -1.2
v -3.1 1 -1.2
v -3 1 -1.2
v -2.6 1 -1.3
v -2.5 1 -1.3
v -3 1 -1.4
v -2.9 1 -1.4
v -3.6 1 -1.5
v -3.5 1 -1.5
v -2.5 1 -1.5
v -2.4 1 -1.5
v -2.9 1 -1.6
v -2.8 1 -1.6
v -2.4 1 -1.6
v -2.3 1 -1.6
v -3.7 1 -1.7
v -3.5 1 -1.7
v -3.4 1 -1.7
v -2.8 1 -1.7
v -2.7 1 -1.7
v -2.3 1 -1.8
v -2.2 1 -1.8
v -3.4 1 -1.9
v -3.3 1 -1.9
v -2.7 1 -1.9
v -2.6 1 -1.9
v -2.2 1 -2
v -2.1 1 -2
v -3.7 1 -2.1
v -3.3 1 -2.1
v -3.2 1 -2.1
v -2.6 1 -2.1
v -2.5 1 -2.1
v -2.1 1 -2.1
v -2 1 -2.1
v -4.9 1 -2.2
v -4.5 1 -2.2
v -3.2 1 -2.2
v -3.1 1 -2.2
v -2 1 -2.2
v -1.9 1 -2.2
v -3.1 1 -2.3
v -3 1 -2.3
v -2.5 1 -2.3
v -2.4 1 -2.3
v -1.9 1 -2.3
v -1.8 1 -2.3
v -2.4 1 -2.4
v -2.3 1 -2.4
v -1.8 1 -2.4
v -1.6 1 -2.4
v -3.1 1 -2.5
v -3 1 -2.5
v -2.9 1 -2.5
v -2.3 1 -2.5
v -2.2 1 -2.5
v -1.6 1 -2.5
v -1.5 1 -2.5
v -5 1 -2.6
v -4.9 1 -2.6
v -4.6 1 -2.6
v -4.5 1 -2.6
v -2.9 1 -2.6
v -2.8 1 -2.6
v -2.2 1 -2.6
v -2.1 1 -2.6
v -1.5 1 -2.6
v -1.4 1 -2.6
v -2.8 1 -2.7
v -2.7 1 -2.7
v -2.1 1 -2.7
v -1.9 1 -2.7
v -1.4 1 -2.7
v -1.2 1 -2.7
v -2.7 1 -2.8
v -2.6 1 -2.8
v -1.9 1 -2.8
v -1.8 1 -2.8
v -1.2 1 -2.8
v -1 1 -2.8
v -3.1 1 -2.9
v -2.7 1 -2.9
v -2.6 1 -2.9
v -2.4 1 -2.9
v -1.8 1 -2.9
v -1.7 1 -2.9
v -1 1 -2.9
v -0.8 1 -2.9
v -5 1 -3
v -4.6 1 -3
v -2.4 1 -3
v -2.3 1 -3
v -1.7 1 -3
v -1.5 1 -3
v -0.8 1 -3
v 5 1 -3
v -1.5 1 -3.1
v -1.3 1 -3.1
v -2.3 1 -3.2
v -2.1 1 -3.2
v -1.3 1 -3.2
v -1.1 1 -3.2
v -2.7 1 -3.3
v -2.3 1 -3.3
v -2.1 1 -3.3
v -2 1 -3.3
v -1.1 1 -3.3
v 5 1 -3.3
v -2 1 -3.4
v -1.8 1 -3.4
v -1.8 1 -3.5
v -1.6 1 -3.5
v -1.6 1 -3.6
v -1.4 1 -3.6
v -1.4 1 -3.7
v -1 1 -3.7
v -1 1 -3.8
v 3 1 -3.8
v 3.4 1 -3.8
v 5 1 -3.8
v 3 1 -4
v 3.4 1 -4
v -0.2 1 -4.7
v 0.2 1 -4.7
v 0.6 1 -4.7
v -5 1 -5
v -0.2 1 -5
v 0.2 1 -5
v 0.6 1 -5
v 5 1 -5

# faces
f 3/2/1 2/2/1 1/2/1
f 4/2/1 2/2/1 3/2/1
f 5/2/1 3/2/1 1/2/1
f 6/1/1 4/1/1 3/1/1
f 6/2/1 3/2/1 5/2/1
f 7/2/1 2/2/1 4/2/1
f 7/1/1 4/1/1 6/1/1
f 8/2/1 2/2/1 7/2/1
f 9/2/2 10/2/2 11/2/2
f 11/2/2 10/2/2 12/2/2
f 9/2/2 11/2/2 13/2/2
f 13/2/2 11/2/2 14/2/2
f 9/2/2 13/2/2 15/2/2
f 13/5/2 14/5/2 16/5/2
f 15/2/2 13/2/2 16/2/2
f 14/2/2 11/2/2 17/2/2
f 16/5/2 14/5/2 17/5/2
f 11/1/2 12/1/2 18/1/2
f 17/2/2 11/2/2 18/2/2
f 12/2/2 10/2/2 19/2/2
f 18/1/2 12/1/2 19/1/2
f 19/2/2 10/2/2 20/2/2
f 20/2/2 10/2/2 21/2/2
f 21/2/2 10/2/2 22/2/2
f 9/2/2 15/2/2 23/2/2
f 15/4/2 16/4/2 24/4/2
f 23/2/2 15/2/2 24/2/2
f 16/5/2 17/5/2 25/5/2
f 24/4/2 16/4/2 25/4/2
f 17/7/2 18/7/2 26/7/2
f 25/5/2 17/5/2 26/5/2
f 18/7/2 19/7/2 26/7/2
f 19/7/2 20/7/2 26/7/2
f 20/5/2 21/5/2 27/5/2
f 26/7/2 20/7/2 27/7/2
f 21/4/2 22/4/2 28/4/2
f 27/5/2 21/5/2 28/5/2
f 22/2/2 10/2/2 29/2/2
f 28/4/2 22/4/2 29/4/2
f 29/2/2 10/2/2 30/2/2
f 33/2/3 32/2/3 31/2/3
f 34/2/3 32/2/3 33/2/3
f 35/4/3 34/4/3 33/4/3
f 36/4/3 34/4/3 35/4/3
f 37/5/3 36/5/3 35/5/3
f 38/5/3 36/5/3 37/5/3
f 39/7/3 38/7/3 37/7/3
f 40/7/3 38/7/3 39/7/3
f 41/5/3 40/5/3 39/5/3
f 42/5/3 40/5/3 41/5/3
f 43/4/3 42/4/3 41/4/3
f 44/4/3 42/4/3 43/4/3
f 45/2/3 44/2/3 43/2/3
f 46/2/3 44/2/3 45/2/3
f 47/2/4 48/2/4 49/2/4
f 49/2/4 48/2/4 50/2/4
f 47/2/4 49/2/4 51/2/4
f 49/1/4 50/1/4 51/1/4
f 51/1/4 50/1/4 52/1/4
f 47/2/4 51/2/4 53/2/4
f 51/3/4 52/3/4 53/3/4
f 53/3/4 52/3/4 54/3/4
f 47/2/4 53/2/4 55/2/4
f 53/2/4 54/2/4 55/2/4
f 55/2/4 54/2/4 56/2/4
f 65/5/5 60/5/5 59/5/5
f 65/7/5 61/7/5 60/7/5
f 66/5/5 62/5/5 61/5/5
f 66/7/5 61/7/5 65/7/5
f 67/2/5 64/2/5 63/2/5
f 67/4/5 63/4/5 62/4/5
f 68/2/5 64/2/5 67/2/5
f 69/5/5 62/5/5 66/5/5
f 69/4/5 67/4/5 62/4/5
f 69/4/5 68/4/5 67/4/5
f 70/2/5 64/2/5 68/2/5
f 70/4/5 68/4/5 69/4/5
f 71/5/5 69/5/5 66/5/5
f 71/2/5 66/2/5 65/2/5
f 72/2/5 70/2/5 69/2/5
f 72/5/5 69/5/5 71/5/5
f 73/4/5 59/4/5 58/4/5
f 73/5/5 65/5/5 59/5/5
f 74/2/5 71/2/5 65/2/5
f 74/5/5 65/5/5 73/5/5
f 74/2/5 72/2/5 71/2/5
f 75/2/5 58/2/5 57/2/5
f 75/4/5 73/4/5 58/4/5
f 76/2/5 74/2/5 73/2/5
f 76/4/5 73/4/5 75/4/5
f 77/2/5 75/2/5 57/2/5
f 77/2/5 76/2/5 75/2/5
f 78/2/5 72/2/5 74/2/5
f 78/2/5 76/2/5 77/2/5
f 78/2/5 70/2/5 72/2/5
f 78/2/5 74/2/5 76/2/5
f 78/2/5 64/2/5 70/2/5
f 83/5/6 84/5/6 87/5/6
f 84/4/6 85/4/6 87/4/6
f 87/4/6 85/4/6 88/4/6
f 85/2/6 86/2/6 89/2/6
f 88/4/6 85/4/6 89/4/6
f 89/2/6 86/2/6 90/2/6
f 82/7/6 83/7/6 91/7/6
f 91/7/6 83/7/6 92/7/6
f 87/5/6 88/5/6 93/5/6
f 92/7/6 83/7/6 93/7/6
f 83/5/6 87/5/6 93/5/6
f 93/5/6 88/5/6 94/5/6
f 90/2/6 86/2/6 95/2/6
f 89/4/6 90/4/6 95/4/6
f 95/2/6 86/2/6 96/2/6
f 94/5/6 88/5/6 97/5/6
f 88/4/6 89/4/6 97/4/6
f 95/4/6 96/4/6 97/4/6
f 89/4/6 95/4/6 97/4/6
f 97/4/6 96/4/6 98/4/6
f 96/2/6 86/2/6 99/2/6
f 98/4/6 96/4/6 99/4/6
f 99/2/6 86/2/6 100/2/6
f 97/5/6 98/5/6 101/5/6
f 98/4/6 99/4/6 101/4/6
f 99/4/6 100/4/6 101/4/6
f 101/4/6 100/4/6 102/4/6
f 100/2/6 86/2/6 103/2/6
f 102/4/6 100/4/6 103/4/6
f 103/2/6 86/2/6 104/2/6
f 101/5/6 102/5/6 105/5/6
f 92/7/6 93/7/6 105/7/6
f 93/7/6 94/7/6 105/7/6
f 94/5/6 97/5/6 105/5/6
f 97/5/6 101/5/6 105/5/6
f 105/5/6 102/5/6 106/5/6
f 103/4/6 104/4/6 107/4/6
f 106/5/6 102/5/6 107/5/6
f 102/4/6 103/4/6 107/4/6
f 107/4/6 104/4/6 108/4/6
f 104/2/6 86/2/6 109/2/6
f 108/4/6 104/4/6 109/4/6
f 109/2/6 86/2/6 110/2/6
f 107/5/6 108/5/6 111/5/6
f 105/7/6 106/7/6 111/7/6
f 106/5/6 107/5/6 111/5/6
f 111/5/6 108/5/6 112/5/6
f 109/4/6 110/4/6 113/4/6
f 112/5/6 108/5/6 113/5/6
f 108/4/6 109/4/6 113/4/6
f 113/4/6 110/4/6 114/4/6
f 110/2/6 86/2/6 115/2/6
f 114/4/6 110/4/6 115/4/6
f 115/2/6 86/2/6 116/2/6
f 113/5/6 114/5/6 117/5/6
f 111/7/6 112/7/6 117/7/6
f 112/5/6 113/5/6 117/5/6
f 117/5/6 114/5/6 118/5/6
f 115/4/6 116/4/6 119/4/6
f 118/5/6 114/5/6 119/5/6
f 114/4/6 115/4/6 119/4/6
f 119/4/6 116/4/6 120/4/6
f 116/2/6 86/2/6 121/2/6
f 120/4/6 116/4/6 121/4/6
f 121/2/6 86/2/6 122/2/6
f 119/5/6 120/5/6 123/5/6
f 118/5/6 119/5/6 123/5/6
f 121/4/6 122/4/6 123/4/6
f 120/4/6 121/4/6 123/4/6
f 123/4/6 122/4/6 124/4/6
f 117/7/6 118/7/6 125/7/6
f 118/5/6 123/5/6 125/5/6
f 123/5/6 124/5/6 125/5/6
f 125/5/6 124/5/6 126/5/6
f 124/4/6 122/4/6 127/4/6
f 126/5/6 124/5/6 127/5/6
f 127/4/6 122/4/6 128/4/6
f 125/7/6 126/7/6 129/7/6
f 126/5/6 127/5/6 129/5/6
f 127/5/6 128/5/6 129/5/6
f 129/5/6 128/5/6 130/5/6
f 128/4/6 122/4/6 131/4/6
f 130/5/6 128/5/6 131/5/6
f 131/4/6 122/4/6 132/4/6
f 129/7/6 130/7/6 133/7/6
f 130/5/6 131/5/6 133/5/6
f 131/5/6 132/5/6 133/5/6
f 133/5/6 132/5/6 134/5/6
f 132/4/6 122/4/6 135/4/6
f 134/5/6 132/5/6 135/5/6
f 135/4/6 122/4/6 136/4/6
f 133/7/6 134/7/6 137/7/6
f 134/5/6 135/5/6 137/5/6
f 135/5/6 136/5/6 137/5/6
f 137/5/6 136/5/6 138/5/6
f 136/4/6 122/4/6 139/4/6
f 138/5/6 136/5/6 139/5/6
f 139/4/6 122/4/6 140/4/6
f 137/7/6 138/7/6 141/7/6
f 138/5/6 139/5/6 141/5/6
f 139/5/6 140/5/6 141/5/6
f 141/5/6 140/5/6 142/5/6
f 141/7/6 142/7/6 143/7/6
f 142/5/6 140/5/6 143/5/6
f 143/5/6 140/5/6 144/5/6
f 143/7/6 144/7/6 145/7/6
f 144/5/6 140/5/6 145/5/6
f 145/5/6 140/5/6 146/5/6
f 79/2/6 80/2/6 147/2/6
f 80/4/6 81/4/6 148/4/6
f 147/2/6 80/2/6 148/2/6
f 79/2/6 147/2/6 149/2/6
f 147/3/6 148/3/6 149/3/6
f 148/4/6 81/4/6 150/4/6
f 149/3/6 148/3/6 150/3/6
f 91/6/6 92/6/6 151/6/6
f 82/7/6 91/7/6 151/7/6
f 92/7/6 105/7/6 152/7/6
f 151/6/6 92/6/6 152/6/6
f 105/7/6 111/7/6 152/7/6
f 145/7/6 146/7/6 152/7/6
f 143/7/6 145/7/6 152/7/6
f 141/7/6 143/7/6 152/7/6
f 137/7/6 141/7/6 152/7/6
f 133/7/6 137/7/6 152/7/6
f 129/7/6 133/7/6 152/7/6
f 125/7/6 129/7/6 152/7/6
f 117/7/6 125/7/6 152/7/6
f 111/7/6 117/7/6 152/7/6
f 151/7/6 152/7/6 153/7/6
f 152/7/6 146/7/6 153/7/6
f 153/7/6 146/7/6 154/7/6
f 150/4/6 81/4/6 155/4/6
f 149/2/6 150/2/6 155/2/6
f 155/4/6 81/4/6 156/4/6
f 81/5/6 82/5/6 157/5/6
f 82/7/6 151/7/6 157/7/6
f 151/7/6 153/7/6 157/7/6
f 157/7/6 153/7/6 158/7/6
f 153/6/6 154/6/6 159/6/6
f 158/7/6 153/7/6 159/7/6
f 154/7/6 146/7/6 160/7/6
f 159/6/6 154/6/6 160/6/6
f 156/4/6 81/4/6 161/4/6
f 157/5/6 158/5/6 161/5/6
f 81/5/6 157/5/6 161/5/6
f 161/5/6 158/5/6 162/5/6
f 158/7/6 159/7/6 163/7/6
f 162/5/6 158/5/6 163/5/6
f 159/7/6 160/7/6 163/7/6
f 163/7/6 160/7/6 164/7/6
f 162/5/6 163/5/6 165/5/6
f 164/7/6 160/7/6 165/7/6
f 163/5/6 164/5/6 165/5/6
f 165/7/6 160/7/6 166/7/6
f 161/4/6 162/4/6 167/4/6
f 162/5/6 165/5/6 167/5/6
f 165/5/6 166/5/6 167/5/6
f 167/5/6 166/5/6 168/5/6
f 166/7/6 160/7/6 169/7/6
f 168/5/6 166/5/6 169/5/6
f 169/7/6 160/7/6 170/7/6
f 167/4/6 168/4/6 171/4/6
f 156/4/6 161/4/6 171/4/6
f 155/2/6 156/2/6 171/2/6
f 161/4/6 167/4/6 171/4/6
f 171/4/6 168/4/6 172/4/6
f 169/5/6 170/5/6 173/5/6
f 172/4/6 168/4/6 173/4/6
f 168/5/6 169/5/6 173/5/6
f 173/5/6 170/5/6 174/5/6
f 170/7/6 160/7/6 175/7/6
f 174/5/6 170/5/6 175/5/6
f 175/7/6 160/7/6 176/7/6
f 173/4/6 174/4/6 177/4/6
f 172/4/6 173/4/6 177/4/6
f 175/5/6 176/5/6 177/5/6
f 174/5/6 175/5/6 177/5/6
f 177/5/6 176/5/6 178/5/6
f 171/2/6 172/2/6 179/2/6
f 172/4/6 177/4/6 179/4/6
f 177/4/6 178/4/6 179/4/6
f 179/4/6 178/4/6 180/4/6
f 176/7/6 160/7/6 181/7/6
f 178/5/6 176/5/6 181/5/6
f 181/7/6 160/7/6 182/7/6
f 180/4/6 178/4/6 183/4/6
f 178/5/6 181/5/6 183/5/6
f 181/5/6 182/5/6 183/5/6
f 183/5/6 182/5/6 184/5/6
f 182/7/6 160/7/6 185/7/6
f 184/5/6 182/5/6 185/5/6
f 185/7/6 160/7/6 186/7/6
f 179/2/6 180/2/6 187/2/6
f 155/2/6 171/2/6 187/2/6
f 171/2/6 179/2/6 187/2/6
f 183/4/6 184/4/6 188/4/6
f 187/2/6 180/2/6 188/2/6
f 180/4/6 183/4/6 188/4/6
f 188/4/6 184/4/6 189/4/6
f 185/5/6 186/5/6 190/5/6
f 189/4/6 184/4/6 190/4/6
f 184/5/6 185/5/6 190/5/6
f 190/5/6 186/5/6 191/5/6
f 186/7/6 160/7/6 192/7/6
f 191/5/6 186/5/6 192/5/6
f 192/7/6 160/7/6 193/7/6
f 190/4/6 191/4/6 194/4/6
f 188/1/6 189/1/6 194/1/6
f 187/1/6 188/1/6 194/1/6
f 189/4/6 190/4/6 194/4/6
f 194/4/6 191/4/6 195/4/6
f 192/5/6 193/5/6 196/5/6
f 195/4/6 191/4/6 196/4/6
f 191/5/6 192/5/6 196/5/6
f 196/5/6 193/5/6 197/5/6
f 193/7/6 160/7/6 198/7/6
f 197/5/6 193/5/6 198/5/6
f 198/7/6 160/7/6 199/7/6
f 155/2/6 187/2/6 200/2/6
f 194/1/6 195/1/6 200/1/6
f 187/1/6 194/1/6 200/1/6
f 196/4/6 197/4/6 201/4/6
f 200/1/6 195/1/6 201/1/6
f 195/4/6 196/4/6 201/4/6
f 201/4/6 197/4/6 202/4/6
f 198/5/6 199/5/6 203/5/6
f 202/4/6 197/4/6 203/4/6
f 197/5/6 198/5/6 203/5/6
f 203/5/6 199/5/6 204/5/6
f 199/7/6 160/7/6 205/7/6
f 204/5/6 199/5/6 205/5/6
f 205/7/6 160/7/6 206/7/6
f 79/2/6 149/2/6 207/2/6
f 155/2/6 200/2/6 207/2/6
f 201/2/6 202/2/6 207/2/6
f 149/2/6 155/2/6 207/2/6
f 200/2/6 201/2/6 207/2/6
f 207/2/6 202/2/6 208/2/6
f 203/4/6 204/4/6 209/4/6
f 208/2/6 202/2/6 209/2/6
f 202/4/6 203/4/6 209/4/6
f 209/4/6 204/4/6 210/4/6
f 206/7/6 160/7/6 211/7/6
f 205/5/6 206/5/6 211/5/6
f 204/5/6 205/5/6 211/5/6
f 211/7/6 160/7/6 212/7/6
f 210/4/6 204/4/6 213/4/6
f 209/2/6 210/2/6 213/2/6
f 208/2/6 209/2/6 213/2/6
f 213/4/6 204/4/6 214/4/6
f 211/5/6 212/5/6 215/5/6
f 214/4/6 204/4/6 215/4/6
f 204/5/6 211/5/6 215/5/6
f 215/5/6 212/5/6 216/5/6
f 212/7/6 160/7/6 217/7/6
f 216/5/6 212/5/6 217/5/6
f 217/7/6 160/7/6 218/7/6
f 215/4/6 216/4/6 219/4/6
f 214/4/6 215/4/6 219/4/6
f 217/5/6 218/5/6 219/5/6
f 216/5/6 217/5/6 219/5/6
f 219/5/6 218/5/6 220/5/6
f 218/7/6 160/7/6 221/7/6
f 220/5/6 218/5/6 221/5/6
f 221/7/6 160/7/6 222/7/6
f 213/2/6 214/2/6 223/2/6
f 208/2/6 213/2/6 223/2/6
f 219/4/6 220/4/6 224/4/6
f 223/2/6 214/2/6 224/2/6
f 214/4/6 219/4/6 224/4/6
f 224/4/6 220/4/6 225/4/6
f 221/5/6 222/5/6 226/5/6
f 225/4/6 220/4/6 226/4/6
f 220/5/6 221/5/6 226/5/6
f 226/5/6 222/5/6 227/5/6
f 222/7/6 160/7/6 228/7/6
f 227/5/6 222/5/6 228/5/6
f 228/7/6 160/7/6 229/7/6
f 79/2/6 207/2/6 230/2/6
f 207/3/6 208/3/6 231/3/6
f 230/2/6 207/2/6 231/2/6
f 231/3/6 208/3/6 232/3/6
f 208/2/6 223/2/6 233/2/6
f 232/3/6 208/3/6 233/3/6
f 226/4/6 227/4/6 234/4/6
f 224/3/6 225/3/6 234/3/6
f 223/3/6 224/3/6 234/3/6
f 225/4/6 226/4/6 234/4/6
f 234/4/6 227/4/6 235/4/6
f 228/5/6 229/5/6 236/5/6
f 235/4/6 227/4/6 236/4/6
f 227/5/6 228/5/6 236/5/6
f 236/5/6 229/5/6 237/5/6
f 229/7/6 160/7/6 238/7/6
f 237/5/6 229/5/6 238/5/6
f 238/7/6 160/7/6 239/7/6
f 236/4/6 237/4/6 240/4/6
f 234/3/6 235/3/6 240/3/6
f 235/4/6 236/4/6 240/4/6
f 240/4/6 237/4/6 241/4/6
f 238/5/6 239/5/6 242/5/6
f 241/4/6 237/4/6 242/4/6
f 237/5/6 238/5/6 242/5/6
f 242/5/6 239/5/6 243/5/6
f 239/7/6 160/7/6 244/7/6
f 243/5/6 239/5/6 244/5/6
f 244/7/6 160/7/6 245/7/6
f 242/4/6 243/4/6 246/4/6
f 240/3/6 241/3/6 246/3/6
f 241/4/6 242/4/6 246/4/6
f 246/4/6 243/4/6 247/4/6
f 244/5/6 245/5/6 248/5/6
f 247/4/6 243/4/6 248/4/6
f 243/5/6 244/5/6 248/5/6
f 248/5/6 245/5/6 249/5/6
f 245/7/6 160/7/6 250/7/6
f 249/5/6 245/5/6 250/5/6
f 250/7/6 160/7/6 251/7/6
f 233/2/6 223/2/6 252/2/6
f 232/2/6 233/2/6 252/2/6
f 223/3/6 234/3/6 252/3/6
f 234/3/6 240/3/6 252/3/6
f 240/3/6 246/3/6 252/3/6
f 246/1/6 247/1/6 253/1/6
f 252/3/6 246/3/6 253/3/6
f 248/4/6 249/4/6 254/4/6
f 253/1/6 247/1/6 254/1/6
f 247/4/6 248/4/6 254/4/6
f 254/4/6 249/4/6 255/4/6
f 250/5/6 251/5/6 256/5/6
f 255/4/6 249/4/6 256/4/6
f 249/5/6 250/5/6 256/5/6
f 256/5/6 251/5/6 257/5/6
f 251/7/6 160/7/6 258/7/6
f 257/5/6 251/5/6 258/5/6
f 258/7/6 160/7/6 259/7/6
f 231/1/6 232/1/6 260/1/6
f 230/1/6 231/1/6 260/1/6
f 252/2/6 253/2/6 261/2/6
f 260/1/6 232/1/6 261/1/6
f 232/2/6 252/2/6 261/2/6
f 256/4/6 257/4/6 262/4/6
f 254/1/6 255/1/6 262/1/6
f 253/1/6 254/1/6 262/1/6
f 255/4/6 256/4/6 262/4/6
f 262/4/6 257/4/6 263/4/6
f 258/5/6 259/5/6 264/5/6
f 263/4/6 257/4/6 264/4/6
f 257/5/6 258/5/6 264/5/6
f 264/5/6 259/5/6 265/5/6
f 259/7/6 160/7/6 266/7/6
f 265/5/6 259/5/6 266/5/6
f 160/7/6 146/7/6 267/7/6
f 266/7/6 160/7/6 267/7/6
f 264/4/6 265/4/6 268/4/6
f 265/5/6 266/5/6 268/5/6
f 266/5/6 267/5/6 268/5/6
f 263/4/6 264/4/6 268/4/6
f 268/5/6 267/5/6 269/5/6
f 262/1/6 263/1/6 270/1/6
f 263/4/6 268/4/6 270/4/6
f 268/4/6 269/4/6 270/4/6
f 270/4/6 269/4/6 271/4/6
f 269/5/6 267/5/6 272/5/6
f 271/4/6 269/4/6 272/4/6
f 272/5/6 267/5/6 273/5/6
f 253/1/6 262/1/6 274/1/6
f 261/2/6 253/2/6 274/2/6
f 260/2/6 261/2/6 274/2/6
f 262/1/6 270/1/6 274/1/6
f 270/2/6 271/2/6 275/2/6
f 274/1/6 270/1/6 275/1/6
f 272/4/6 273/4/6 276/4/6
f 275/2/6 271/2/6 276/2/6
f 271/4/6 272/4/6 276/4/6
f 276/4/6 273/4/6 277/4/6
f 273/5/6 267/5/6 278/5/6
f 277/4/6 273/4/6 278/4/6
f 278/5/6 267/5/6 279/5/6
f 276/2/6 277/2/6 280/2/6
f 274/2/6 275/2/6 280/2/6
f 278/4/6 279/4/6 280/4/6
f 277/4/6 278/4/6 280/4/6
f 275/2/6 276/2/6 280/2/6
f 280/4/6 279/4/6 281/4/6
f 280/2/6 281/2/6 282/2/6
f 281/4/6 279/4/6 282/4/6
f 282/4/6 279/4/6 283/4/6
f 282/2/6 283/2/6 284/2/6
f 283/4/6 279/4/6 284/4/6
f 284/4/6 279/4/6 285/4/6
f 284/2/6 285/2/6 286/2/6
f 285/4/6 279/4/6 286/4/6
f 286/4/6 279/4/6 287/4/6
f 286/2/6 287/2/6 288/2/6
f 287/4/6 279/4/6 288/4/6
f 288/4/6 279/4/6 289/4/6
f 289/4/6 279/4/6 290/4/6
f 290/4/6 279/4/6 291/4/6
f 288/2/6 289/2/6 292/2/6
f 289/3/6 290/3/6 292/3/6
f 290/2/6 291/2/6 293/2/6
f 292/3/6 290/3/6 293/3/6
f 288/2/6 292/2/6 294/2/6
f 292/2/6 293/2/6 294/2/6
f 294/2/6 293/2/6 295/2/6
f 295/2/6 293/2/6 296/2/6
f 260/2/6 274/2/6 297/2/6
f 274/2/6 280/2/6 297/2/6
f 280/2/6 282/2/6 297/2/6
f 282/2/6 284/2/6 297/2/6
f 288/2/6 294/2/6 297/2/6
f 284/2/6 286/2/6 297/2/6
f 286/2/6 288/2/6 297/2/6
f 294/1/6 295/1/6 298/1/6
f 297/2/6 294/2/6 298/2/6
f 295/3/6 296/3/6 299/3/6
f 298/1/6 295/1/6 299/1/6
f 296/2/6 293/2/6 300/2/6
f 299/3/6 296/3/6 300/3/6
f 293/2/6 291/2/6 301/2/6
f 300/2/6 293/2/6 301/2/6
